999
DXF file written by CADintosh 8.8.6 (Build 736). Export module developed by Kurt Geisweller and Thorsten Lemke (c)1992-2021.
  0
SECTION
  2
HEADER
  9
$ACADVER
  1
AC1009
  9
$INSBASE
 10
0.0
 20
0.0
  9
$EXTMIN
 10
203.0
 20
-14.5
  9
$EXTMAX
 10
366.7
 20
127.5
  9
$LIMMIN
 10
203.0
 20
-14.5
  9
$LIMMAX
 10
366.7
 20
127.5
  9
$ORTHOMODE
 70
0
  9
$REGENMODE
 70
1
  9
$FILLMODE
 70
1
  9
$QTEXTMODE
 70
0
  9
$MIRRTEXT
 70
0
  9
$DRAGMODE
 70
2
  9
$LTSCALE
 40
25.0
  9
$ATTMODE
 70
1
  9
$TEXTSIZE
 40
3.5
  9
$TEXTSTYLE
  7
STANDARD
  9
$CELTYPE
  6
BYLAYER
  9
$DIMSCALE
 40
1.0
  9
$DIMASZ
 40
3.5
  9
$DIMEXO
 40
0.1
  9
$DIMDLI
 40
0.0
  9
$DIMRND
 40
0.0
  9
$DIMDLE
 40
0.0
  9
$DIMEXE
 40
1.8
  9
$DIMTP
 40
0.0
  9
$DIMTM
 40
0.0
  9
$DIMTXT
 40
3.5
  9
$DIMCEN
 40
1.5
  9
$DIMTSZ
 40
0.0
  9
$DIMTOL
 70
0
  9
$DIMLIM
 70
0
  9
$DIMTIH
 70
0
  9
$DIMTOH
 70
0
  9
$DIMSE1
 70
0
  9
$DIMSE2
 70
0
  9
$DIMTAD
 70
0
  9
$DIMZIN
 70
4
  9
$DIMBLK
  1

  9
$DIMASO
 70
0
  9
$DIMSHO
 70
0
  9
$DIMPOST
  1

  9
$DIMAPOST
  1

  9
$DIMALT
 70
0
  9
$DIMALTD
 70
8
  9
$DIMALTF
 40
25.4
  9
$DIMLFAC
 40
1.0
  9
$DIMTOFL
 70
0
  9
$DIMTVP
 40
0.0
  9
$DIMTIX
 70
0
  9
$DIMSOXD
 70
0
  9
$DIMSAH
 70
0
  9
$DIMBLK1
  1

  9
$DIMBLK2
  1

  9
$DIMSTYLE
  2
*UNNAMED
  9
$DIMCLRD
 70
0
  9
$DIMCLRE
 70
0
  9
$DIMCLRT
 70
0
  9
$DIMTFAC
 40
1.0
  9
$DIMGAP
 40
0.09
  9
$LUNITS
 70
2
  9
$LUPREC
 70
2
  9
$SKETCHINC
 40
1.0
  9
$FILLETRAD
 40
0.0
  9
$AUNITS
 70
0
  9
$AUPREC
 70
2
  9
$MENU
  1
ACAD
  9
$ANGBASE
 50
0.0
  9
$ANGDIR
 70
0
  9
$PDMODE
 70
0
  9
$PDSIZE
 40
0.0
  9
$SPLFRAME
 70
0
  9
$SPLINETYPE
 70
6
  9
$SPLINESEGS
 70
8
  9
$ATTDIA
 70
0
  9
$HANDLING
 70
0
  9
$HANDSEED
  5
0
  9
$TILEMODE
 70
1
  9
$MAXACTVP
 70
16
  9
$PLIMMIN
 10
0.0
 20
0.0
  9
$PLIMMAX
 10
12.0
 20
9.0
  9
$UNITMODE
 70
0
  9
$VISRETAIN
 70
0
  9
$PLINEGEN
 70
0
  9
$TREEDEPTH
 70
0
  9
$DWGCODEPAGE
  3
iso-1
  0
ENDSEC
  0
SECTION
  2
TABLES
  0
TABLE
  2
LTYPE
 70
6
  0
LTYPE
  2
CONTINUOUS
 70
64
  3
Solid Line
 72
65
 73
0
 40
0.0
  0
LTYPE
  2
DASHED
 70
64
  3
__ __ __ __ __
 72
65
 73
2
 40
1.5
 49
1.2
 49
-0.3
  0
LTYPE
  2
HIDDEN
 70
64
  3
_ _ _ _ _
 72
65
 73
2
 40
1.5
 49
1.2
 49
-0.3
  0
LTYPE
  2
CENTER
 70
64
  3
__ . __ . __
 72
65
 73
4
 40
3.6
 49
2.4
 49
-0.6
 49
0.0
 49
-0.6
  0
LTYPE
  2
PHANTOM
 70
64
  3
_____ . . _____ . . _____ . . ____ .. ____
 72
65
 73
6
 40
17.5
 49
10.0
 49
-2.5
 49
0.0
 49
-2.5
 49
0.0
 49
-2.5
  0
LTYPE
  2
DOT
 70
64
  3
. . . . . . . . . . . . . . . . . . . . . . . .
 72
65
 73
2
 40
0.25
 49
0.0
 49
-0.25
  0
ENDTAB
  0
TABLE
  2
LAYER
 70
4
  0
LAYER
  2
0
 70
64
 62
7
  6
CONTINUOUS
  0
LAYER
  2
DEFPOINTS
 70
64
 62
-7
  6
CONTINUOUS
  0
LAYER
  2
0_0001
 70
64
 62
7
  6
CONTINUOUS
  0
LAYER
  2
LAYER_0001
 70
64
 62
7
  6
CONTINUOUS
  0
ENDTAB
  0
TABLE
  2
STYLE
 70
1
  0
STYLE
  2
STANDARD
 70
0
 40
0.0
 41
1.0
 50
0.0
 71
0
 42
3.5
  3
txt
  4

  0
ENDTAB
  0
TABLE
  2
DIMSTYLE
 70
1
  0
DIMSTYLE
  2
Standard
 70
0
  3

  4

  5

  6

  7

 40
1.0
 41
3.5
 42
0.1
 43
0.0
 44
0.0
 45
0.0
 46
0.0
 47
0.0
 48
0.0
140
3.5
141
1.5
142
0.0
143
25.4
144
1.0
145
0.0
146
1.0
147
0.09
 71
0
 72
0
 73
0
 74
0
 75
0
 76
0
 77
0
 78
4
170
0
171
8
172
0
173
0
174
0
175
0
176
0
177
0
178
0
  0
ENDTAB
  0
TABLE
  2
VIEW
 70
0
  0
ENDTAB
  0
ENDSEC
  0
SECTION
  2
BLOCKS
  0
BLOCK
  8
0
  2
$MODEL_1
 70
0
 10
0.0
 20
0.0
  3
$MODEL_1
  0
ENDBLK
  8
0
  0
BLOCK
  8
0
  2
$MODEL_S
 70
0
 10
0.0
 20
0.0
  3
$MODEL_S
  0
ENDBLK
  8
0
  0
BLOCK
  8
0
  2
$PAPER_1
 70
0
 10
0.0
 20
0.0
  3
$PAPER_1
  0
ENDBLK
  8
0
  0
BLOCK
  8
0
  2
$PAPER_S
 70
0
 10
0.0
 20
0.0
  3
$PAPER_S
  0
ENDBLK
  8
0
  0
ENDSEC
  0
SECTION
  2
ENTITIES
  0
LINE
  8
LAYER_0001
  6
CONTINUOUS
 62
5
 39
0.01
 10
238.4
 20
61.5
 11
238.4
 21
66.5
  0
LINE
  8
LAYER_0001
  6
CONTINUOUS
 62
5
 39
0.01
 10
265.5
 20
67.5
 11
265.5
 21
127.5
  0
LINE
  8
LAYER_0001
  6
CONTINUOUS
 62
5
 39
0.01
 10
239.4
 20
67.5
 11
265.5
 21
67.5
  0
LINE
  8
LAYER_0001
  6
CONTINUOUS
 62
5
 39
0.01
 10
244.7
 20
127.5
 11
265.5
 21
127.5
  0
LINE
  8
LAYER_0001
  6
CONTINUOUS
 62
5
 39
0.01
 10
244.7
 20
117.0
 11
244.7
 21
127.5
  0
LINE
  8
LAYER_0001
  6
CONTINUOUS
 62
5
 39
0.01
 10
223.75
 20
117.0
 11
244.7
 21
117.0
  0
LINE
  8
LAYER_0001
  6
CONTINUOUS
 62
5
 39
0.01
 10
223.75
 20
117.0
 11
223.75
 21
127.5
  0
LINE
  8
LAYER_0001
  6
CONTINUOUS
 62
5
 39
0.01
 10
203.0
 20
127.5
 11
223.75
 21
127.5
  0
LINE
  8
LAYER_0001
  6
CONTINUOUS
 62
5
 39
0.01
 10
203.0
 20
67.5
 11
216.4
 21
67.5
  0
LINE
  8
LAYER_0001
  6
CONTINUOUS
 62
5
 39
0.01
 10
217.4
 20
61.5
 11
217.4
 21
66.5
  0
LINE
  8
LAYER_0001
  6
CONTINUOUS
 62
5
 39
0.01
 10
218.4
 20
60.5
 11
237.4
 21
60.5
  0
LINE
  8
LAYER_0001
  6
CONTINUOUS
 62
5
 39
0.01
 10
248.05
 20
102.8
 11
248.05
 21
109.9
  0
LINE
  8
LAYER_0001
  6
CONTINUOUS
 62
5
 39
0.01
 10
255.55
 20
102.8
 11
255.55
 21
109.9
  0
LINE
  8
LAYER_0001
  6
CONTINUOUS
 62
5
 39
0.01
 10
220.8
 20
63.0
 11
235.0
 21
63.0
  0
LINE
  8
LAYER_0001
  6
CONTINUOUS
 62
5
 39
0.01
 10
220.8
 20
65.0
 11
235.0
 21
65.0
  0
LINE
  8
LAYER_0001
  6
CONTINUOUS
 62
5
 39
0.01
 10
230.2
 20
-13.5
 11
230.2
 21
-8.5
  0
LINE
  8
LAYER_0001
  6
CONTINUOUS
 62
5
 39
0.01
 10
203.1
 20
-7.5
 11
203.1
 21
52.5
  0
LINE
  8
LAYER_0001
  6
CONTINUOUS
 62
5
 39
0.01
 10
203.1
 20
-7.5
 11
229.2
 21
-7.5
  0
LINE
  8
LAYER_0001
  6
CONTINUOUS
 62
5
 39
0.01
 10
203.1
 20
52.5
 11
278.1
 21
52.5
  0
LINE
  8
LAYER_0001
  6
CONTINUOUS
 62
5
 39
0.01
 10
252.2
 20
-7.5
 11
265.6
 21
-7.5
  0
LINE
  8
LAYER_0001
  6
CONTINUOUS
 62
5
 39
0.01
 10
251.2
 20
-13.5
 11
251.2
 21
-8.5
  0
LINE
  8
LAYER_0001
  6
CONTINUOUS
 62
5
 39
0.01
 10
231.2
 20
-14.5
 11
250.2
 21
-14.5
  0
LINE
  8
LAYER_0001
  6
CONTINUOUS
 62
5
 39
0.01
 10
233.6
 20
-12.0
 11
247.8
 21
-12.0
  0
LINE
  8
LAYER_0001
  6
CONTINUOUS
 62
5
 39
0.01
 10
233.6
 20
-10.0
 11
247.8
 21
-10.0
  0
LINE
  8
LAYER_0001
  6
CONTINUOUS
 62
5
 39
0.01
 10
265.6
 20
-7.5
 11
278.1
 21
-7.5
  0
LINE
  8
LAYER_0001
  6
CONTINUOUS
 62
5
 39
0.01
 10
278.1
 20
-7.5
 11
278.1
 21
52.5
  0
LINE
  8
0_0001
  6
CONTINUOUS
 62
5
 39
0.01
 10
203.0
 20
67.5
 11
203.0
 21
127.5
  0
CIRCLE
  8
LAYER_0001
  6
CONTINUOUS
 62
5
 39
0.01
 10
220.9
 20
79.87
 40
1.0
  0
CIRCLE
  8
LAYER_0001
  6
CONTINUOUS
 62
5
 39
0.01
 10
234.9
 20
69.6
 40
1.0
  0
CIRCLE
  8
LAYER_0001
  6
CONTINUOUS
 62
5
 39
0.01
 10
220.9
 20
69.6
 40
1.0
  0
CIRCLE
  8
LAYER_0001
  6
CONTINUOUS
 62
5
 39
0.01
 10
211.8
 20
122.5
 40
1.6
  0
CIRCLE
  8
LAYER_0001
  6
CONTINUOUS
 62
5
 39
0.01
 10
261.8
 20
72.5
 40
1.6
  0
CIRCLE
  8
LAYER_0001
  6
CONTINUOUS
 62
5
 39
0.01
 10
211.8
 20
72.5
 40
1.6
  0
CIRCLE
  8
LAYER_0001
  6
CONTINUOUS
 62
5
 39
0.01
 10
261.8
 20
122.5
 40
1.6
  0
CIRCLE
  8
LAYER_0001
  6
CONTINUOUS
 62
5
 39
0.01
 10
238.3
 20
103.1
 40
3.75
  0
ARC
  8
LAYER_0001
  6
CONTINUOUS
 62
5
 39
0.01
 10
239.4
 20
66.5
 40
1.0
 50
90.0
 51
180.0
  0
ARC
  8
LAYER_0001
  6
CONTINUOUS
 62
5
 39
0.01
 10
237.4
 20
61.5
 40
1.0
 50
270.0
 51
0.0
  0
ARC
  8
LAYER_0001
  6
CONTINUOUS
 62
5
 39
0.01
 10
218.4
 20
61.5
 40
1.0
 50
180.0
 51
270.0
  0
ARC
  8
LAYER_0001
  6
CONTINUOUS
 62
5
 39
0.01
 10
216.4
 20
66.5
 40
1.0
 50
0.0
 51
90.0
  0
ARC
  8
LAYER_0001
  6
CONTINUOUS
 62
5
 39
0.01
 10
251.8
 20
102.80000023
 40
3.75
 50
180.0
 51
359.99999647
  0
ARC
  8
LAYER_0001
  6
CONTINUOUS
 62
5
 39
0.01
 10
251.8
 20
109.89999977
 40
3.75
 50
0.0
 51
179.99999647
  0
CIRCLE
  8
LAYER_0001
  6
CONTINUOUS
 62
5
 39
0.01
 10
259.5
 20
82.6
 40
1.25
  0
CIRCLE
  8
LAYER_0001
  6
CONTINUOUS
 62
5
 39
0.01
 10
259.5
 20
89.1
 40
1.25
  0
ARC
  8
LAYER_0001
  6
CONTINUOUS
 62
5
 39
0.01
 10
234.999
 20
63.9999995
 40
1.0
 50
270.0572958
 51
89.94270426
  0
ARC
  8
LAYER_0001
  6
CONTINUOUS
 62
5
 39
0.01
 10
220.801
 20
64.0000005
 40
1.0
 50
90.0572958
 51
269.94270426
  0
CIRCLE
  8
LAYER_0001
  6
CONTINUOUS
 62
5
 39
0.01
 10
230.07
 20
69.6
 40
1.0
  0
CIRCLE
  8
LAYER_0001
  6
CONTINUOUS
 62
5
 39
0.01
 10
225.23
 20
69.6
 40
1.0
  0
CIRCLE
  8
LAYER_0001
  6
CONTINUOUS
 62
5
 39
0.01
 10
225.23
 20
85.0
 40
1.0
  0
CIRCLE
  8
LAYER_0001
  6
CONTINUOUS
 62
5
 39
0.01
 10
230.07
 20
85.0
 40
1.0
  0
CIRCLE
  8
LAYER_0001
  6
CONTINUOUS
 62
5
 39
0.01
 10
220.9
 20
85.0
 40
1.0
  0
CIRCLE
  8
LAYER_0001
  6
CONTINUOUS
 62
5
 39
0.01
 10
234.9
 20
85.0
 40
1.0
  0
CIRCLE
  8
LAYER_0001
  6
CONTINUOUS
 62
5
 39
0.01
 10
234.9
 20
74.73
 40
1.0
  0
CIRCLE
  8
LAYER_0001
  6
CONTINUOUS
 62
5
 39
0.01
 10
234.9
 20
79.87
 40
1.0
  0
CIRCLE
  8
LAYER_0001
  6
CONTINUOUS
 62
5
 39
0.01
 10
220.9
 20
74.73
 40
1.0
  0
CIRCLE
  8
LAYER_0001
  6
CONTINUOUS
 62
5
 39
0.01
 10
230.07
 20
79.87
 40
1.0
  0
CIRCLE
  8
LAYER_0001
  6
CONTINUOUS
 62
5
 39
0.01
 10
230.07
 20
74.73
 40
1.0
  0
CIRCLE
  8
LAYER_0001
  6
CONTINUOUS
 62
5
 39
0.01
 10
225.23
 20
79.87
 40
1.0
  0
CIRCLE
  8
LAYER_0001
  6
CONTINUOUS
 62
5
 39
0.01
 10
225.23
 20
74.73
 40
1.0
  0
CIRCLE
  8
LAYER_0001
  6
CONTINUOUS
 62
5
 39
0.01
 10
232.18
 20
43.9
 40
1.5
  0
CIRCLE
  8
LAYER_0001
  6
CONTINUOUS
 62
5
 39
0.01
 10
256.8
 20
47.5
 40
1.6
  0
CIRCLE
  8
LAYER_0001
  6
CONTINUOUS
 62
5
 39
0.01
 10
206.8
 20
-2.5
 40
1.6
  0
CIRCLE
  8
LAYER_0001
  6
CONTINUOUS
 62
5
 39
0.01
 10
256.8
 20
-2.5
 40
1.6
  0
CIRCLE
  8
LAYER_0001
  6
CONTINUOUS
 62
5
 39
0.01
 10
206.8
 20
47.5
 40
1.6
  0
ARC
  8
LAYER_0001
  6
CONTINUOUS
 62
5
 39
0.01
 10
229.2
 20
-8.5
 40
1.0
 50
0.0
 51
90.0
  0
ARC
  8
LAYER_0001
  6
CONTINUOUS
 62
5
 39
0.01
 10
231.2
 20
-13.5
 40
1.0
 50
180.0
 51
270.0
  0
ARC
  8
LAYER_0001
  6
CONTINUOUS
 62
5
 39
0.01
 10
250.2
 20
-13.5
 40
1.0
 50
270.0
 51
0.0
  0
ARC
  8
LAYER_0001
  6
CONTINUOUS
 62
5
 39
0.01
 10
252.2
 20
-8.5
 40
1.0
 50
90.0
 51
180.0
  0
ARC
  8
LAYER_0001
  6
CONTINUOUS
 62
5
 39
0.01
 10
233.601
 20
-11.0000005
 40
1.0
 50
90.05729574
 51
269.9427042
  0
ARC
  8
LAYER_0001
  6
CONTINUOUS
 62
5
 39
0.01
 10
247.799
 20
-10.9999995
 40
1.0
 50
270.05729574
 51
89.9427042
  0
CIRCLE
  8
LAYER_0001
  6
CONTINUOUS
 62
5
 39
0.01
 10
227.1
 20
43.9
 40
1.5
  0
CIRCLE
  8
LAYER_0001
  6
CONTINUOUS
 62
5
 39
0.01
 10
238.3
 20
43.9
 40
1.5
  0
CIRCLE
  8
LAYER_0001
  6
CONTINUOUS
 62
5
 39
0.01
 10
241.8
 20
43.9
 40
1.5
  0
ENDSEC
  0
EOF
