<!-- icon666.com - MILLIONS vector ICONS FREE --><svg id="Capa_1" enable-background="new 0 0 512 512" viewBox="0 0 512 512" xmlns="http://www.w3.org/2000/svg"><g><path d="m251.069 161.166 5.685 15.062 14.034-5.296-24.024-63.657-12.557.011-24.229 63.617 14.018 5.339 5.742-15.075h21.331zm-10.618-28.135 4.957 13.134h-9.959z"></path><path d="m308.538 105.394c-18.233 0-33.066 14.833-33.066 33.066s14.833 33.066 33.066 33.066c6.383 0 12.479-1.791 17.727-5.137l8.037 8.037 10.606-10.606-8.133-8.133c3.146-5.138 4.828-11.058 4.828-17.227.001-18.233-14.832-33.066-33.065-33.066zm17.039 39.094-7.633-7.633-10.606 10.606 7.819 7.82c-2.079.817-4.315 1.244-6.619 1.244-9.962 0-18.066-8.104-18.066-18.066s8.104-18.066 18.066-18.066c9.961 0 18.065 8.104 18.065 18.066.001 2.085-.351 4.117-1.026 6.029z"></path><path d="m203.46 122.278v-15h-37.5v67.5h15v-22.5h22.5v-15h-22.5v-15z"></path><path d="m68.501 0v512h224.999v-15h-209.999v-482h344.998v422h-60v60h-29.999v15h40.605l64.394-64.394v-447.606zm349.392 452-34.394 34.394v-34.394z"></path><path d="m308.5 497h15v15h-15z"></path><path d="m398.5 60h15v15h-15z"></path><path d="m398.5 30h15v15h-15z"></path><path d="m217.3 393.829h158.7v15h-158.7z"></path><path d="m145.053 397.312-10.606 10.606 26.516 26.517 37.123-37.123-10.606-10.607-26.517 26.517z"></path><path d="m217.3 423.829h83.1v15h-83.1z"></path><path d="m187.48 311.706-26.517 26.517-15.91-15.91-10.606 10.606 26.516 26.517 37.123-37.123z"></path><path d="m187.48 236.707-26.517 26.517-15.91-15.91-10.606 10.606 26.516 26.517 37.123-37.124z"></path><path d="m217.3 348.83h83.1v15h-83.1z"></path><path d="m217.3 318.83h158.7v15h-158.7z"></path><path d="m217.3 243.831h158.7v15h-158.7z"></path><path d="m217.3 273.831h83.1v15h-83.1z"></path><path d="m376 73.17h-247.499v60h15v-45h217.499v104.999h-217.499v-44.999h-15v59.999h247.499z"></path></g></svg>