<?xml version="1.0" encoding="UTF-8" standalone="no"?>
<svg
   width="24"
   height="24"
   version="1.1"
   id="svg1"
   sodipodi:docname="network_drive.svg"
   inkscape:version="1.4 (e7c3feb100, 2024-10-09)"
   xmlns:inkscape="http://www.inkscape.org/namespaces/inkscape"
   xmlns:sodipodi="http://sodipodi.sourceforge.net/DTD/sodipodi-0.dtd"
   xmlns="http://www.w3.org/2000/svg"
   xmlns:svg="http://www.w3.org/2000/svg">
  <defs
     id="defs1" />
  <sodipodi:namedview
     id="namedview1"
     pagecolor="#ffffff"
     bordercolor="#000000"
     borderopacity="0.25"
     inkscape:showpageshadow="2"
     inkscape:pageopacity="0.0"
     inkscape:pagecheckerboard="0"
     inkscape:deskcolor="#d1d1d1"
     inkscape:zoom="18.090148"
     inkscape:cx="-7.0756744"
     inkscape:cy="20.674236"
     inkscape:window-width="3440"
     inkscape:window-height="1408"
     inkscape:window-x="0"
     inkscape:window-y="0"
     inkscape:window-maximized="1"
     inkscape:current-layer="svg1" />
  <rect
     fill="none"
     x="4.5"
     y="2"
     width="15"
     height="20"
     rx="1"
     ry="1"
     stroke="#31363b"
     stroke-width="1"
     id="rect1" />
  <path
     fill="#31363b"
     d="M 14.616,13.2 C 14.664,12.804 14.7,12.408 14.7,12 c 0,-0.408 -0.036,-0.804 -0.084,-1.2 h 2.028 c 0.096,0.384 0.156,0.786 0.156,1.2 0,0.414 -0.06,0.816 -0.156,1.2 m -3.09,3.336 C 13.914,15.87 14.19,15.15 14.382,14.4 h 1.77 c -0.576,0.99 -1.494,1.758 -2.598,2.136 M 13.404,13.2 H 10.596 C 10.536,12.804 10.5,12.408 10.5,12 c 0,-0.408 0.036,-0.81 0.096,-1.2 h 2.808 c 0.054,0.39 0.096,0.792 0.096,1.2 0,0.408 -0.042,0.804 -0.096,1.2 M 12,16.776 C 11.502,16.056 11.1,15.258 10.854,14.4 h 2.292 C 12.9,15.258 12.498,16.056 12,16.776 M 9.6,9.6 H 7.848 C 8.418,8.604 9.342,7.836 10.44,7.464 10.08,8.13 9.81,8.85 9.6,9.6 M 7.848,14.4 H 9.6 c 0.21,0.75 0.48,1.47 0.84,2.136 C 9.342,16.158 8.418,15.39 7.848,14.4 M 7.356,13.2 C 7.26,12.816 7.2,12.414 7.2,12 7.2,11.586 7.26,11.184 7.356,10.8 H 9.384 C 9.336,11.196 9.3,11.592 9.3,12 c 0,0.408 0.036,0.804 0.084,1.2 M 12,7.218 c 0.498,0.72 0.9,1.524 1.146,2.382 H 10.854 C 11.1,8.742 11.502,7.938 12,7.218 M 16.152,9.6 h -1.77 C 14.19,8.85 13.914,8.13 13.554,7.464 14.658,7.842 15.576,8.604 16.152,9.6 M 12,6 C 8.682,6 6,8.7 6,12 a 6,6 0 0 0 6,6 6,6 0 0 0 6,-6 6,6 0 0 0 -6,-6 z"
     id="path1"
     style="stroke-width:0.6" />
</svg>
