<!-- icon666.com - MILLIONS vector ICONS FREE --><svg id="Layer_1" enable-background="new 0 0 512 512" viewBox="0 0 512 512" xmlns="http://www.w3.org/2000/svg"><path d="m492 236h-445.867c14.453-53.413 28.247-103.558 43.872-141.205 20.525-49.456 35.322-54.795 40.731-54.795h.465c37.569 0 67.235 105.678 76.984 140.405 2.986 10.634 14.028 16.833 24.661 13.851 10.635-2.985 16.836-14.027 13.85-24.661-14.781-52.656-27.805-87.773-42.227-113.865-20.44-36.98-45.091-55.73-73.269-55.73h-.465c-40.063 0-63.518 45.35-77.675 79.462-17.324 41.743-31.984 95.962-47.505 153.366-1.613 5.967-3.231 11.949-4.855 17.931-1.633 6.012-.371 12.441 3.413 17.39s9.658 7.851 15.887 7.851h213.091c13.146 51.773 28.031 108.704 46.492 151.966 10.802 25.314 22.038 44.204 34.347 57.748 15.853 17.442 33.834 26.286 53.444 26.286 15.555 0 30.313-5.618 43.867-16.699 11.124-9.094 21.352-21.708 31.269-38.563 15.334-26.062 29.833-62.25 45.628-113.888 3.23-10.563-2.713-21.745-13.275-24.976-10.562-3.23-21.744 2.713-24.976 13.275-10.655 34.838-43.083 140.851-82.513 140.851-16.927 0-34.086-20.097-51-59.733-16.168-37.887-29.843-88.658-42.006-136.267h217.632c11.046 0 20-8.954 20-20s-8.954-20-20-20z"></path></svg>