<svg width="18" height="18" preserveAspectRatio="xMidYMid" version="1.0" viewBox="-1.5 -1.5 18 18" xmlns="http://www.w3.org/2000/svg">
 <path d="m-0.5-0.45941c0 0.18643 1.8338 6.1894 1.9077 6.2764 0.036923 0.037286 0.4923-0.37286 1.0216-0.89487l0.94765-0.95704 2.4616 2.4857h-4.4923v1.8643l2.2154 0.024859 2.2154 0.037285-1.2554 1.2677-1.2677 1.2677-0.88617-0.85754c-0.4923-0.48472-0.92304-0.87003-0.94765-0.87003-0.086156 0-1.92 6.003-1.92 6.2888 0 0.087 0.64-0.06215 1.5754-0.348 0.86156-0.261 2.2769-0.68357 3.163-0.93212 0.88617-0.24857 1.6246-0.47229 1.6492-0.49715 0.036924-0.024844-0.39384-0.50957-0.94765-1.0689l-1.0092-1.0191 1.6369-1.653c1.0216-1.0315 1.723-1.6406 1.8708-1.6282 0.14769 0 0.94765 0.68357 1.9077 1.6033l1.6616 1.6157-2.043 2.0632 3.2246 0.96946c1.76 0.522 3.2369 0.94454 3.2616 0.91971 0.03693-0.03729-1.6369-5.7917-1.8708-6.438-0.04924-0.13671-0.33231 0.099429-0.97234 0.79545l-0.91078 0.98187-1.083-0.99429c-0.59077-0.55929-1.1938-1.1185-1.3169-1.2677l-0.23384-0.261h4.4676v-1.8643l-2.2276-0.024865-2.24-0.037284 1.2062-1.2305 1.1938-1.2305 1.0216 1.0315c0.55384 0.55929 1.0462 0.96946 1.083 0.91971 0.02462-0.062142 0.43076-1.3423 0.88617-2.8461 0.44308-1.5039 0.86156-2.8959 0.93539-3.0947 0.06154-0.19885 0.11077-0.38528 0.11077-0.39771 0-0.12429-0.54154 0.012429-2.9662 0.75815-1.44 0.44743-2.843 0.87003-3.1138 0.94454l-0.48 0.13671 1.883 1.9016-1.5877 1.6033c-1.1446 1.1559-1.6492 1.5784-1.8216 1.5411-0.13538-0.012426-0.96-0.72086-1.8216-1.566l-1.5877-1.5287 0.97234-0.98187c0.52923-0.54686 0.94765-1.0067 0.91078-1.044-0.14769-0.14914-6.3876-1.8767-6.3876-1.7648z"/>
</svg>
